<svg xmlns="http://www.w3.org/2000/svg" viewBox="0 0 16 16">
    <defs>
        <style>.a{fill:#3992c4;}.b{fill:#afb2b4;}</style>
    </defs>
    <title>kpx_dark</title>
    <path class="a" d="M11,11.63,9,7.9l1.89-3.53a.29.29,0,0,0,0-.24A.18.18,0,0,0,10.7,4H9.33a.17.17,0,0,0-.14.11L8,6.52,6.8,4.11A.17.17,0,0,0,6.65,4H5.3a.18.18,0,0,0-.15.13.29.29,0,0,0,0,.24L7.05,7.91,5,11.63a.29.29,0,0,0,0,.24.18.18,0,0,0,.16.13H6.54a.16.16,0,0,0,.14-.1L8,9.32,9.32,11.9a.16.16,0,0,0,.14.1h1.36a.18.18,0,0,0,.16-.13A.29.29,0,0,0,11,11.63Z"/>
    <path class="b" d="M5.43,7,4.28,4.84a1.29,1.29,0,0,1-.07-1.07A1.17,1.17,0,0,1,5.3,3H6.65a1.16,1.16,0,0,1,1,.66l.29.6.3-.6a1.15,1.15,0,0,1,1-.66H10.7a1.17,1.17,0,0,1,1.09.77,1.32,1.32,0,0,1-.07,1.08L10.56,7h4.36A7,7,0,0,0,1.08,7Z"/>
    <path class="b" d="M10.7,9l1.15,2.11a1.31,1.31,0,0,1,.06,1.08,1.15,1.15,0,0,1-1.09.77H9.46a1.18,1.18,0,0,1-1-.64L8,11.52l-.42.83a1.19,1.19,0,0,1-1,.65H5.18a1.17,1.17,0,0,1-1.1-.77,1.35,1.35,0,0,1,.07-1.08L5.3,9H1.09A7,7,0,0,0,14.91,9Z"/>
</svg>