<svg xmlns="http://www.w3.org/2000/svg" width="13" height="13" viewBox="0 0 13 13">
    <g fill="#AFB1B3">
        <path
              d="M8.83,9.35,7.24,6.42,8.73,3.65a.21.21,0,0,0,0-.19.14.14,0,0,0-.12-.1H7.55a.14.14,0,0,0-.12.08L6.5,5.34l-.94-1.9a.14.14,0,0,0-.12-.08H4.38a.14.14,0,0,0-.12.1.21.21,0,0,0,0,.19L5.76,6.43,4.17,9.35a.21.21,0,0,0,0,.19.14.14,0,0,0,.12.1H5.35a.14.14,0,0,0,.12-.08l1-2,1,2a.14.14,0,0,0,.12.08H8.72a.14.14,0,0,0,.12-.1A.21.21,0,0,0,8.83,9.35Z"/>
        <path
              d="M4.48,5.71,3.58,4a1,1,0,0,1-.05-.85.92.92,0,0,1,.85-.6H5.44a.9.9,0,0,1,.82.52l.24.47.23-.47a.91.91,0,0,1,.82-.52H8.62a.93.93,0,0,1,.86.61A1,1,0,0,1,9.42,4l-.9,1.69h3.42a5.5,5.5,0,0,0-10.88,0Z"/>
        <path
              d="M8.62,7.32,9.52,9a1,1,0,0,1,.06.84.92.92,0,0,1-.86.61H7.65a.91.91,0,0,1-.81-.5L6.5,9.26l-.33.66a1,1,0,0,1-.82.51H4.28a.92.92,0,0,1-.86-.61A1,1,0,0,1,3.48,9l.9-1.66H1.07a5.49,5.49,0,0,0,10.86,0Z"/>
    </g>
</svg>
