<svg xmlns="http://www.w3.org/2000/svg" width="13" height="13" viewBox="0 0 13 13">
    <g fill="#6E6E6E">
        <path
              d="M8.86,9.38l-1.61-3,1.51-2.8a.28.28,0,0,0,0-.2.15.15,0,0,0-.13-.1H7.56a.14.14,0,0,0-.12.09L6.5,5.32l-1-1.91a.14.14,0,0,0-.12-.09H4.36a.15.15,0,0,0-.13.1.28.28,0,0,0,0,.2L5.75,6.43l-1.61,3a.27.27,0,0,0,0,.2.15.15,0,0,0,.13.1H5.34a.13.13,0,0,0,.11-.08l1-2,1,2.05a.13.13,0,0,0,.11.08H8.74a.15.15,0,0,0,.13-.1A.27.27,0,0,0,8.86,9.38Z"/>
        <path
              d="M4.46,5.71,3.54,4a1,1,0,0,1,0-.85.93.93,0,0,1,.87-.61H5.43a.93.93,0,0,1,.83.52l.24.48.23-.48a.93.93,0,0,1,.83-.52H8.64a.93.93,0,0,1,.87.61,1,1,0,0,1,0,.85L8.54,5.71H12a5.56,5.56,0,0,0-11,0Z"/>
        <path
              d="M8.65,7.33,9.56,9a1,1,0,0,1,0,.86.93.93,0,0,1-.87.61H7.66a.94.94,0,0,1-.82-.5L6.5,9.29,6.16,10a.92.92,0,0,1-.82.51H4.26a.93.93,0,0,1-.87-.61,1,1,0,0,1,0-.86l.92-1.67H1a5.55,5.55,0,0,0,11,0Z"/>
    </g>
</svg>
