<svg id="Ebene_1" xmlns="http://www.w3.org/2000/svg" viewBox="0 0 16 16">
    <defs>
        <style>.cls-1{fill:#6f6f6e}</style>
    </defs>
    <path class="cls-1" d="M10 5H7v2.89L5.14 5H4l2 2.83L3.82 11H5l1.55-2.47.45.68V11h2V9h1a2 2 0 0 0 0-4zm-.07 3H9V6h.93A1.05 1.05 0 0 1 11 7a1.05 1.05 0 0 1-1.07 1z"/>
    <path d="M16 15.72l-1.68-2.79 1.58-2.65a.23.23 0 0 0 0-.18.16.16 0 0 0-.13-.1h-1.16a.14.14 0 0 0-.12.08l-1 1.81-1-1.81a.14.14 0 0 0-.12-.08h-1.12a.16.16 0 0 0-.13.1.23.23 0 0 0 0 .18l1.58 2.66-1.7 2.78a.19.19 0 0 0 0 .18.14.14 0 0 0 .13.1h1.13a.13.13 0 0 0 .12-.08L13.5 14l1.1 1.93a.13.13 0 0 0 .12.08h1.13a.14.14 0 0 0 .13-.1.19.19 0 0 0 .02-.19z" fill="#6f6f6e"/>
    <path class="cls-1" d="M10 13.64A6 6 0 1 1 14 8a6.64 6.64 0 0 1-.09 1h1A6.63 6.63 0 0 0 15 8a7 7 0 1 0-7 7 6.59 6.59 0 0 0 2-.31z"/>
</svg>