<svg xmlns="http://www.w3.org/2000/svg" width="40" height="40" viewBox="0 0 40 40">
    <defs>
        <style>
            .a {
            fill: #3992c4;
            }

            .b {
            fill: #afb2b4;
            }
        </style>
    </defs>
    <g>
        <path class="a"
              d="M27.63,29.33l-5.2-9.58,4.87-9.08a.81.81,0,0,0,0-.63.47.47,0,0,0-.41-.33h-3.5a.46.46,0,0,0-.38.28L20,16.19,16.92,10a.45.45,0,0,0-.38-.28H13.07a.47.47,0,0,0-.41.33.81.81,0,0,0,0,.63l4.87,9.11-5.2,9.54a.79.79,0,0,0,0,.64.45.45,0,0,0,.4.33h3.5a.45.45,0,0,0,.38-.27L20,23.38,23.39,30a.42.42,0,0,0,.37.27h3.5a.45.45,0,0,0,.4-.33A.77.77,0,0,0,27.63,29.33Z"/>
        <path class="b"
              d="M13.39,17.43l-3-5.55a3.31,3.31,0,0,1-.16-2.77,3,3,0,0,1,2.8-2h3.47a3,3,0,0,1,2.69,1.71L20,10.39l.76-1.54a3,3,0,0,1,2.68-1.71h3.5a3,3,0,0,1,2.81,2,3.35,3.35,0,0,1-.18,2.77l-3,5.54H37.8a18,18,0,0,0-35.6,0Z"/>
        <path class="b"
              d="M27,22.68l2.94,5.42a3.41,3.41,0,0,1,.18,2.78,3,3,0,0,1-2.81,2h-3.5a3,3,0,0,1-2.65-1.65L20,29l-1.09,2.14a3,3,0,0,1-2.67,1.68h-3.5a3,3,0,0,1-2.81-2,3.39,3.39,0,0,1,.18-2.77l3-5.42H2.22a18,18,0,0,0,35.56,0Z"/>
    </g>
</svg>
